<svg id="Layer_1" data-name="Layer 1" xmlns="http://www.w3.org/2000/svg" viewBox="0 0 180 180"><path d="M21.08,89.8A2.6,2.6,0,0,1,20,88.91a2.1,2.1,0,0,1-.37-1.2A23.83,23.83,0,0,1,20,85.1l1.55.09c-.06.39-.12.84-.18,1.34a9.12,9.12,0,0,0-.1,1,1,1,0,0,0,.17.53,1.14,1.14,0,0,0,.48.41,1.47,1.47,0,0,0,.7.16,1.35,1.35,0,0,0,.72-.17,1.14,1.14,0,0,0,.43-.41,1,1,0,0,0,.14-.49V83h1.65v4.77a2.25,2.25,0,0,1-.33,1.16,2.39,2.39,0,0,1-1,.9,3.27,3.27,0,0,1-1.56.35A3.58,3.58,0,0,1,21.08,89.8Zm.82-8.39h1.49V83H21.9Z" style="fill:#f60"/><path d="M32.52,86.24v1.51H26.39V86.24h1.2v-3.8h1.65v3.8h.93V81.15h1.65v5.09Z" style="fill:#f60"/><path d="M37.9,86.24v1.51H32.52V86.24h1.07a4.35,4.35,0,0,1-.12-1,2.36,2.36,0,0,1,.45-1.53,2.29,2.29,0,0,1,1-.73,3.32,3.32,0,0,1,1-.18,4,4,0,0,1,.83.1,4.53,4.53,0,0,1,.83.26l-.08,1.59a3.77,3.77,0,0,0-1.47-.45c-.62,0-.94.34-.94,1a1.35,1.35,0,0,0,.34.91Z" style="fill:#f60"/><path d="M44,81.15v6.6H38.57V86.24h1.2v-3.8h1.65v3.8h.93V81.15Zm-2.23,9.47-2.19.43-.12-.55.42-.11a1.14,1.14,0,0,1-.3-.39,1,1,0,0,1-.1-.45,1,1,0,0,1,.3-.73,1.06,1.06,0,0,1,.78-.3,1.47,1.47,0,0,1,.79.23l-.14.71a.48.48,0,0,0-.16-.08.56.56,0,0,0-.23,0,.46.46,0,0,0-.45.45.5.5,0,0,0,.06.24.66.66,0,0,0,.19.18l1-.26Z" style="fill:#f60"/><path d="M45.29,81.15h1.65v6.6H45.29Z" style="fill:#f60"/><path d="M52.91,88.12a2.89,2.89,0,0,1-.59,1.34,1.81,1.81,0,0,1-1.57.67,11.55,11.55,0,0,1-1.82-.21v-1.5a13.89,13.89,0,0,0,1.66.2.66.66,0,0,0,.57-.2,1.16,1.16,0,0,0,.13-.67h-.92a2.29,2.29,0,0,1-1.4-.36,1.63,1.63,0,0,1-.62-.84,4.21,4.21,0,0,1-.14-1.11,3.8,3.8,0,0,1,.31-1.75,1.54,1.54,0,0,1,.8-.76,3.41,3.41,0,0,1,1.18-.18,10.2,10.2,0,0,1,1.35.09A11.47,11.47,0,0,1,53,83v3.71A10.21,10.21,0,0,1,52.91,88.12ZM50.05,86a.86.86,0,0,0,.72.23h.58v-2c-.21,0-.39,0-.57,0a2,2,0,0,0-.44,0,.64.64,0,0,0-.34.3,1.47,1.47,0,0,0-.14.72A1,1,0,0,0,50.05,86Z" style="fill:#f60"/><path d="M62.2,86.24v1.51H58.68a6,6,0,0,1-1.6-.17,1.47,1.47,0,0,1-.88-.72,3.46,3.46,0,0,1-.29-1.63,3.3,3.3,0,0,1,.27-1.52,1.38,1.38,0,0,1,.89-.68,6.52,6.52,0,0,1,1.75-.17c.43,0,.9,0,1.41,0s.86.06,1,.09v3.25ZM57.42,80.6h1.16v1.46H57.42Zm.26,5.31a.58.58,0,0,0,.36.28,3.73,3.73,0,0,0,.67,0h.9V84.39l-.81,0a3.55,3.55,0,0,0-.76.06.49.49,0,0,0-.36.24,1.07,1.07,0,0,0-.12.58A1.43,1.43,0,0,0,57.68,85.91Zm1.37-5.31h1.16v1.46H59.05Z" style="fill:#f60"/><path d="M65.28,83v4.8H62.2V86.24h1.43V83Zm-2.19,5.57h1.16V90H63.09Zm1.63,0h1.16V90H64.72Z" style="fill:#f60"/><path d="M69.2,86.24v1.51H66.58v-6.6h1.65v5.09Z" style="fill:#f60"/><path d="M74.58,86.24v1.51H69.2V86.24h1.07a4.35,4.35,0,0,1-.12-1,2.36,2.36,0,0,1,.45-1.53,2.29,2.29,0,0,1,1-.73,3.32,3.32,0,0,1,1-.18,4,4,0,0,1,.83.1,4.53,4.53,0,0,1,.83.26l-.08,1.59a3.77,3.77,0,0,0-1.47-.45c-.62,0-.94.34-.94,1a1.35,1.35,0,0,0,.34.91Z" style="fill:#f60"/><path d="M81,86.24v1.51H75.25V86.24h3a2.4,2.4,0,0,0-.44-1.51,1.25,1.25,0,0,0-1-.47H75.77l-.12-1.32a9.61,9.61,0,0,1,1.65-.22,2.42,2.42,0,0,1,1.43.42,2.69,2.69,0,0,1,.91,1.21A5.25,5.25,0,0,1,80,86.21v0Z" style="fill:#f60"/><path d="M84.71,86.24v1.51H81V86.24h1.18V81.15h1.65v5.09Z" style="fill:#f60"/><path d="M87.54,81.15v6.6H84.71V86.24h1.18V81.15Z" style="fill:#f60"/><path d="M93.67,86.24v1.51H91.05v-6.6H92.7v5.09Z" style="fill:#f60"/><path d="M96.75,83v4.8H93.67V86.24H95.1V83Zm-2.19,5.57h1.16V90H94.56Zm1.63,0h1.16V90H96.19Z" style="fill:#f60"/><path d="M103.5,86.24v1.51H97.74V86.24h3.05a2.4,2.4,0,0,0-.44-1.51,1.25,1.25,0,0,0-1-.47H98.26l-.12-1.32a9.61,9.61,0,0,1,1.65-.22,2.42,2.42,0,0,1,1.43.42,2.69,2.69,0,0,1,.91,1.21,5.25,5.25,0,0,1,.31,1.86v0Z" style="fill:#f60"/><path d="M108,86.24v1.51H103.5V86.24h1.43V83h1.65v3.29Zm-3.68,2.28h1.16V90h-1.16Zm1.63,0h1.16V90H106Z" style="fill:#f60"/><path d="M113.53,83.19a1.43,1.43,0,0,1,.69.82,4.86,4.86,0,0,1,.14,1.34v2.4H108V86.24h1.43a4.22,4.22,0,0,1-.12-.91,4.68,4.68,0,0,1,.13-1,9.45,9.45,0,0,1,.28-1.06,3.29,3.29,0,0,1,.82-.24,6.13,6.13,0,0,1,1.27-.11A3.53,3.53,0,0,1,113.53,83.19ZM111,85.82q0,.25.09.42h1.66v-.93a2.43,2.43,0,0,0,0-.52.54.54,0,0,0-.26-.31,1.52,1.52,0,0,0-.7-.13,3,3,0,0,0-.69.08,4.64,4.64,0,0,0-.1.9A2.77,2.77,0,0,0,111,85.82Z" style="fill:#f60"/><path d="M122,88.12a2.89,2.89,0,0,1-.59,1.34,1.81,1.81,0,0,1-1.57.67,11.55,11.55,0,0,1-1.82-.21v-1.5a13.89,13.89,0,0,0,1.66.2.66.66,0,0,0,.57-.2,1.16,1.16,0,0,0,.13-.67h-.92a2.29,2.29,0,0,1-1.4-.36,1.63,1.63,0,0,1-.62-.84,4.21,4.21,0,0,1-.14-1.11,3.8,3.8,0,0,1,.31-1.75,1.5,1.5,0,0,1,.8-.76,3.41,3.41,0,0,1,1.18-.18,10.2,10.2,0,0,1,1.35.09,11.47,11.47,0,0,1,1.15.19v3.71A10.21,10.21,0,0,1,122,88.12ZM119.14,86a.86.86,0,0,0,.72.23h.58v-2c-.21,0-.4,0-.57,0a1.9,1.9,0,0,0-.44,0,.64.64,0,0,0-.34.3,1.47,1.47,0,0,0-.14.72A1,1,0,0,0,119.14,86Z" style="fill:#f60"/><path d="M127,87.75H125.2a3.36,3.36,0,0,1-.44,1.73,1.3,1.3,0,0,1-1.19.64l-.69,0V88.6H123q.51,0,.51-.78V82.94h1.66v3.3H127Z" style="fill:#f60"/><path d="M130.11,83v4.8H127V86.24h1.43V83Zm-2.2-2.35h1.16v1.46h-1.16Zm1.63,0h1.16v1.46h-1.16Z" style="fill:#f60"/><path d="M20.37,94h-1.5v-.63h3.69V94H21.08v4.45h-.71Z" style="fill:#4d148c"/><path d="M24.52,93.34h1.9a1.79,1.79,0,0,1,1.26.39,1.55,1.55,0,0,1,.42,1.19,1.43,1.43,0,0,1-.88,1.48l.9,2h-.77l-.82-1.88h-1.3v1.88h-.71Zm1.91,2.59a.89.89,0,0,0,.7-.25,1,1,0,0,0,.25-.74,1,1,0,0,0-.25-.73.91.91,0,0,0-.71-.26H25.23v2Z" style="fill:#4d148c"/><path d="M30.73,98.1a1.62,1.62,0,0,1-.45-1.27V93.34H31v3.5c0,.69.37,1,1.1,1a1.26,1.26,0,0,0,.86-.25,1,1,0,0,0,.28-.78v-3.5h.71v3.49a1.63,1.63,0,0,1-.46,1.27,2,2,0,0,1-1.37.4A2,2,0,0,1,30.73,98.1Z" style="fill:#4d148c"/><path d="M37.06,94v1.58h2v.61h-2V97.8H39.5v.62H36.36V93.34H39.5V94Z" style="fill:#4d148c"/><path d="M49.6,93.34v5.08h-.71V94.11h-.11l-1.32,4.11h-.75l-1.33-4.11h-.1v4.31h-.71V93.34h1.24l1.27,4.14,1.27-4.14Z" style="fill:#4d148c"/><path d="M52.77,94v1.58h2v.61h-2V97.8h2.44v.62H52.07V93.34h3.14V94Z" style="fill:#4d148c"/><path d="M60.4,93.65a1.6,1.6,0,0,1,.59.83,4.76,4.76,0,0,1,.15,1.29,4.55,4.55,0,0,1-.2,1.52,1.61,1.61,0,0,1-.62.86,2.14,2.14,0,0,1-1.14.27H57.4V93.34h1.78A2.09,2.09,0,0,1,60.4,93.65Zm-.27,3.66a3.16,3.16,0,0,0,.29-1.53,3.79,3.79,0,0,0-.12-1,1,1,0,0,0-.39-.58,1.24,1.24,0,0,0-.73-.19H58.11V97.8h1.07A1,1,0,0,0,60.13,97.31Z" style="fill:#4d148c"/><path d="M63.4,93.34h.71v5.08H63.4Z" style="fill:#4d148c"/><path d="M69.19,97.23H67.13l-.31,1.19h-.7l1.31-5.08h1.46l1.31,5.08h-.7Zm-1.91-.63H69l-.69-2.66H68Z" style="fill:#4d148c"/><path d="M77.73,97.23h-2l-.32,1.19h-.7L76,93.34h1.47l1.31,5.08h-.7Zm-1.9-.63h1.75l-.68-2.66h-.39Z" style="fill:#4d148c"/><path d="M83.77,93.65a1.6,1.6,0,0,1,.59.83,4.76,4.76,0,0,1,.15,1.29,4.55,4.55,0,0,1-.2,1.52,1.61,1.61,0,0,1-.62.86,2.14,2.14,0,0,1-1.14.27H80.77V93.34h1.78A2.09,2.09,0,0,1,83.77,93.65Zm-.27,3.66a3.16,3.16,0,0,0,.29-1.53,3.79,3.79,0,0,0-.12-1,1,1,0,0,0-.39-.58,1.24,1.24,0,0,0-.73-.19H81.48V97.8h1.07A1,1,0,0,0,83.5,97.31Z" style="fill:#4d148c"/><path d="M86.25,93.34H87l1.08,4.46h.39l1.08-4.46h.74L89,98.42H87.52Z" style="fill:#4d148c"/><path d="M93,94v1.58h2v.61H93V97.8h2.43v.62H92.29V93.34h3.14V94Z" style="fill:#4d148c"/><path d="M97.63,93.34h1.9a1.79,1.79,0,0,1,1.26.39,1.55,1.55,0,0,1,.41,1.19,1.43,1.43,0,0,1-.87,1.48l.9,2h-.78l-.82-1.88h-1.3v1.88h-.7Zm1.91,2.59a.91.91,0,0,0,.7-.25,1,1,0,0,0,.24-.74,1,1,0,0,0-.24-.73.94.94,0,0,0-.71-.26h-1.2v2Z" style="fill:#4d148c"/><path d="M104.37,94h-1.5v-.63h3.69V94h-1.48v4.45h-.71Z" style="fill:#4d148c"/><path d="M108.52,93.34h.71v5.08h-.71Z" style="fill:#4d148c"/><path d="M111.71,98.35l-.26,0,.07-.57a12,12,0,0,0,1.52.13c.67,0,1-.3,1-.91a.7.7,0,0,0-.11-.4.73.73,0,0,0-.32-.24,4.11,4.11,0,0,0-.64-.18,5.27,5.27,0,0,1-.93-.31,1.17,1.17,0,0,1-.48-.45,1.37,1.37,0,0,1-.16-.72,1.29,1.29,0,0,1,.42-1,1.87,1.87,0,0,1,1.24-.36c.2,0,.42,0,.66,0l.92.13-.06.58a14,14,0,0,0-1.46-.12c-.67,0-1,.25-1,.74a.71.71,0,0,0,.12.43.79.79,0,0,0,.36.25,5.41,5.41,0,0,0,.76.22,4.09,4.09,0,0,1,.83.29,1.09,1.09,0,0,1,.43.42,1.49,1.49,0,0,1,.14.68,1.53,1.53,0,0,1-.43,1.18,1.71,1.71,0,0,1-1.24.4A8.38,8.38,0,0,1,111.71,98.35Z" style="fill:#4d148c"/><path d="M116.94,93.34h.71v5.08h-.71Z" style="fill:#4d148c"/><path d="M123.92,93.34v5.08h-1.24L120.92,94h-.12v4.46h-.7V93.34h1.26l1.72,4.46h.13V93.34Z" style="fill:#4d148c"/><path d="M127,98.22a1.49,1.49,0,0,1-.63-.85,6,6,0,0,1,0-3,1.53,1.53,0,0,1,.63-.84,2.05,2.05,0,0,1,1.16-.28,7.66,7.66,0,0,1,1.44.15l.26,0,0,.57a10.61,10.61,0,0,0-1.54-.13,1.51,1.51,0,0,0-.87.21,1,1,0,0,0-.4.63,5.21,5.21,0,0,0-.1,1.18,4.89,4.89,0,0,0,.11,1.15,1,1,0,0,0,.41.61,1.43,1.43,0,0,0,.81.19,5.1,5.1,0,0,0,.91-.07V96.41h-.73v-.63h1.43v2.54a9.45,9.45,0,0,1-1.68.18A2.12,2.12,0,0,1,127,98.22Z" style="fill:#4d148c"/><path d="M161.22,78H141.48A3.44,3.44,0,0,0,138,81.44v5.48L145,93.43Z" style="fill:#4d148c"/><path d="M161.22,80.09,145,99.54,138,89v8.72a3.44,3.44,0,0,0,3.44,3.45h16.3a3.44,3.44,0,0,0,3.44-3.45Z" style="fill:#f60"/></svg>