<svg id="Layer_1" data-name="Layer 1" xmlns="http://www.w3.org/2000/svg" viewBox="0 0 512 512"><path d="M56.34,255.41a7.52,7.52,0,0,1-3.07-2.57,6.1,6.1,0,0,1-1.08-3.47,70,70,0,0,1,.91-7.56l4.48.25c-.17,1.13-.34,2.43-.53,3.89s-.28,2.42-.28,2.86a2.83,2.83,0,0,0,.49,1.55,3.48,3.48,0,0,0,1.39,1.19,4.38,4.38,0,0,0,2,.46,4,4,0,0,0,2.07-.49A3,3,0,0,0,64,250.31a2.87,2.87,0,0,0,.41-1.41V235.58H69.2V249.4a6.52,6.52,0,0,1-1,3.35,7.11,7.11,0,0,1-2.83,2.61,9.41,9.41,0,0,1-4.53,1A10.35,10.35,0,0,1,56.34,255.41Zm2.38-24.3H63v4.47H58.72Z" style="fill:#f60"/><path d="M89.49,245.12v4.36H71.73v-4.36H75.2v-11H80v11h2.7V230.36h4.78v14.76Z" style="fill:#f60"/><path d="M105.05,245.12v4.36H89.49v-4.36h3.08a13.43,13.43,0,0,1-.33-2.81,6.73,6.73,0,0,1,1.31-4.43,6.5,6.5,0,0,1,2.93-2.12,9.38,9.38,0,0,1,2.93-.54,11.26,11.26,0,0,1,2.41.31,12.16,12.16,0,0,1,2.4.75l-.22,4.58a11.24,11.24,0,0,0-4.25-1.28c-1.82,0-2.73,1-2.73,2.9a3.88,3.88,0,0,0,1,2.64Z" style="fill:#f60"/><path d="M122.73,230.36v19.12H107v-4.36h3.47v-11h4.78v11H118V230.36Zm-6.45,27.43L109.92,259l-.34-1.58,1.23-.34a3,3,0,0,1-.88-1.11,3.15,3.15,0,0,1-.29-1.3,2.91,2.91,0,0,1,.88-2.12,3,3,0,0,1,2.26-.89,4.53,4.53,0,0,1,2.28.67l-.42,2.06a2.13,2.13,0,0,0-.46-.24,1.67,1.67,0,0,0-.65-.12,1.21,1.21,0,0,0-.94.39,1.28,1.28,0,0,0-.36.91,1.36,1.36,0,0,0,.18.68,1.29,1.29,0,0,0,.54.52l2.89-.75Z" style="fill:#f60"/><path d="M126.48,230.36h4.79v19.12h-4.79Z" style="fill:#f60"/><path d="M148.54,250.56a8.44,8.44,0,0,1-1.7,3.88,5.26,5.26,0,0,1-4.54,1.93,32.81,32.81,0,0,1-5.28-.61v-4.33a46.62,46.62,0,0,0,4.81.58,1.94,1.94,0,0,0,1.64-.58,3.39,3.39,0,0,0,.39-2h-2.67a6.69,6.69,0,0,1-4.05-1,4.7,4.7,0,0,1-1.79-2.46,11.35,11.35,0,0,1-.42-3.21,11,11,0,0,1,.91-5.06,4.42,4.42,0,0,1,2.3-2.21,10.14,10.14,0,0,1,3.44-.51,30,30,0,0,1,3.89.25c1.3.17,2.41.35,3.33.55v10.76A29,29,0,0,1,148.54,250.56Zm-8.28-6.11a2.63,2.63,0,0,0,2.1.67H144v-5.7c-.59,0-1.14-.06-1.64-.06a4.56,4.56,0,0,0-1.28.17,1.77,1.77,0,0,0-1,.85,4.08,4.08,0,0,0-.42,2.1A3.08,3.08,0,0,0,140.26,244.45Z" style="fill:#f60"/><path d="M175.46,245.12v4.36h-10.2a17,17,0,0,1-4.64-.5,4.13,4.13,0,0,1-2.53-2.07,10.11,10.11,0,0,1-.86-4.74,9.42,9.42,0,0,1,.8-4.41,4.09,4.09,0,0,1,2.56-2,19.81,19.81,0,0,1,5.09-.5c1.24,0,2.6,0,4.08.13a29.49,29.49,0,0,1,3,.26v9.43Zm-13.84-16.35H165V233h-3.36Zm.76,15.39a1.67,1.67,0,0,0,1,.79,8.5,8.5,0,0,0,1.92.17H168v-5.37c-1.17-.05-2-.08-2.34-.08a11.88,11.88,0,0,0-2.2.15,1.59,1.59,0,0,0-1.07.7,3.2,3.2,0,0,0-.34,1.68A4,4,0,0,0,162.38,244.16Zm4-15.39h3.37V233h-3.37Z" style="fill:#f60"/><path d="M184.38,235.58v13.9h-8.92v-4.36h4.14v-9.54ZM178,251.7h3.37v4.23H178Zm4.73,0h3.36v4.23h-3.36Z" style="fill:#f60"/><path d="M195.75,245.12v4.36h-7.59V230.36h4.78v14.76Z" style="fill:#f60"/><path d="M211.32,245.12v4.36H195.75v-4.36h3.09a12.85,12.85,0,0,1-.34-2.81,6.73,6.73,0,0,1,1.31-4.43,6.5,6.5,0,0,1,2.93-2.12,9.38,9.38,0,0,1,2.93-.54,11.26,11.26,0,0,1,2.41.31,12.16,12.16,0,0,1,2.4.75l-.22,4.58a11.24,11.24,0,0,0-4.25-1.28c-1.82,0-2.73,1-2.73,2.9a3.89,3.89,0,0,0,1,2.64Z" style="fill:#f60"/><path d="M230,245.12v4.36H213.26v-4.36h8.84a6.92,6.92,0,0,0-1.28-4.4,3.68,3.68,0,0,0-2.83-1.36h-3.2l-.36-3.81a26.46,26.46,0,0,1,4.78-.63,6.94,6.94,0,0,1,4.14,1.22,7.53,7.53,0,0,1,2.63,3.5,14.66,14.66,0,0,1,.9,5.39v.09Z" style="fill:#f60"/><path d="M240.67,245.12v4.36H230v-4.36h3.42V230.36h4.78v14.76Z" style="fill:#f60"/><path d="M248.87,230.36v19.12h-8.2v-4.36h3.42V230.36Z" style="fill:#f60"/><path d="M266.63,245.12v4.36H259V230.36h4.78v14.76Z" style="fill:#f60"/><path d="M275.55,235.58v13.9h-8.92v-4.36h4.14v-9.54Zm-6.34,16.12h3.37v4.23h-3.37Zm4.73,0h3.36v4.23h-3.36Z" style="fill:#f60"/><path d="M295.12,245.12v4.36H278.41v-4.36h8.84a6.86,6.86,0,0,0-1.28-4.4,3.67,3.67,0,0,0-2.83-1.36h-3.2l-.36-3.81a26.46,26.46,0,0,1,4.78-.63,6.94,6.94,0,0,1,4.14,1.22,7.53,7.53,0,0,1,2.63,3.5A14.66,14.66,0,0,1,292,245v.09Z" style="fill:#f60"/><path d="M308.24,245.12v4.36H295.12v-4.36h4.14v-9.54H304v9.54Zm-10.68,6.58h3.37v4.23h-3.37Zm4.73,0h3.36v4.23h-3.36Z" style="fill:#f60"/><path d="M324.16,236.28a4,4,0,0,1,2,2.36,14.9,14.9,0,0,1,.41,3.89v6.95H308.24v-4.36h4.14a12.08,12.08,0,0,1-.36-2.64,14.31,14.31,0,0,1,.37-3,31.5,31.5,0,0,1,.82-3.06,9.93,9.93,0,0,1,2.39-.71,19.29,19.29,0,0,1,3.67-.32A10.06,10.06,0,0,1,324.16,236.28Zm-7.43,7.61c.08.49.17.89.26,1.23h4.81v-2.7a7.15,7.15,0,0,0-.12-1.5,1.5,1.5,0,0,0-.77-.9,4.14,4.14,0,0,0-2-.38,8.63,8.63,0,0,0-2,.22,15.53,15.53,0,0,0-.28,2.62A8.6,8.6,0,0,0,316.73,243.89Z" style="fill:#f60"/><path d="M348.69,250.56a8.41,8.41,0,0,1-1.69,3.88,5.29,5.29,0,0,1-4.55,1.93,32.93,32.93,0,0,1-5.28-.61v-4.33A46.62,46.62,0,0,0,342,252a1.93,1.93,0,0,0,1.64-.58,3.31,3.31,0,0,0,.39-2h-2.67a6.63,6.63,0,0,1-4-1,4.66,4.66,0,0,1-1.8-2.46,11.73,11.73,0,0,1-.41-3.21,11.13,11.13,0,0,1,.9-5.06,4.4,4.4,0,0,1,2.31-2.21,10.08,10.08,0,0,1,3.43-.51,29.89,29.89,0,0,1,3.89.25c1.3.17,2.41.35,3.34.55v10.76A29,29,0,0,1,348.69,250.56Zm-8.28-6.11a2.63,2.63,0,0,0,2.1.67h1.67v-5.7c-.6,0-1.14-.06-1.64-.06a4.46,4.46,0,0,0-1.28.17,1.73,1.73,0,0,0-1,.85,4.08,4.08,0,0,0-.42,2.1A3.08,3.08,0,0,0,340.41,244.45Z" style="fill:#f60"/><path d="M363.27,249.48H358a9.8,9.8,0,0,1-1.25,5,3.82,3.82,0,0,1-3.44,1.85q-.61,0-2-.09V252l.42,0q1.5,0,1.5-2.28V235.55H358v9.57h5.31Z" style="fill:#f60"/><path d="M372.19,235.58v13.9h-8.92v-4.36h4.14v-9.54Zm-6.36-6.81h3.36V233h-3.36Zm4.72,0h3.37V233h-3.37Z" style="fill:#f60"/><path d="M54.28,267.5H49.94v-1.82H60.63v1.82H56.34v12.89H54.28Z" style="fill:#4d148c"/><path d="M66.3,265.68h5.51a5.15,5.15,0,0,1,3.65,1.14,4.51,4.51,0,0,1,1.21,3.44c0,2.16-.85,3.59-2.55,4.27l2.61,5.86H74.49L72.11,275H68.35v5.43h-2Zm5.54,7.51a2.7,2.7,0,0,0,2-.74,3,3,0,0,0,.69-2.15,3,3,0,0,0-.69-2.12,2.76,2.76,0,0,0-2.07-.72H68.35v5.73Z" style="fill:#4d148c"/><path d="M84.3,279.46A4.71,4.71,0,0,1,83,275.77V265.68h2.06v10.14q0,3,3.18,3a3.65,3.65,0,0,0,2.49-.73,2.86,2.86,0,0,0,.83-2.26V265.68h2v10.09a4.68,4.68,0,0,1-1.32,3.69,5.82,5.82,0,0,1-4,1.17A5.8,5.8,0,0,1,84.3,279.46Z" style="fill:#4d148c"/><path d="M102.64,267.48v4.57h5.77v1.78h-5.77v4.76h7.06v1.8h-9.11V265.68h9.11v1.8Z" style="fill:#4d148c"/><path d="M139,265.68v14.71h-2.05V267.91h-.32l-3.83,11.9h-2.18l-3.85-11.9h-.3v12.48h-2.05V265.68H128l3.7,12,3.68-12Z" style="fill:#4d148c"/><path d="M148.15,267.48v4.57h5.78v1.78h-5.78v4.76h7.06v1.8H146.1V265.68h9.11v1.8Z" style="fill:#4d148c"/><path d="M170.26,266.58A4.44,4.44,0,0,1,172,269a13.16,13.16,0,0,1,.45,3.73,14,14,0,0,1-.58,4.41A4.53,4.53,0,0,1,170,279.6a6,6,0,0,1-3.29.79h-5.15V265.68h5.15A6,6,0,0,1,170.26,266.58Zm-.79,10.59a9.06,9.06,0,0,0,.83-4.41,11,11,0,0,0-.35-3.06,3.06,3.06,0,0,0-1.13-1.69,3.74,3.74,0,0,0-2.11-.53h-3.1v11.11h3.1A3,3,0,0,0,169.47,277.17Z" style="fill:#4d148c"/><path d="M178.94,265.68H181v14.71h-2.05Z" style="fill:#4d148c"/><path d="M195.7,277h-5.94l-.92,3.44h-2l3.8-14.71h4.23l3.81,14.71h-2Zm-5.52-1.82h5.09l-2-7.72h-1.11Z" style="fill:#4d148c"/><path d="M220.45,277h-5.94l-.92,3.44h-2l3.81-14.71h4.23l3.8,14.71h-2Zm-5.51-1.82H220l-2-7.72h-1.11Z" style="fill:#4d148c"/><path d="M238,266.58a4.44,4.44,0,0,1,1.69,2.41,13.16,13.16,0,0,1,.45,3.73,13.73,13.73,0,0,1-.58,4.41,4.56,4.56,0,0,1-1.81,2.47,6.06,6.06,0,0,1-3.3.79h-5.15V265.68h5.15A6,6,0,0,1,238,266.58Zm-.79,10.59a8.93,8.93,0,0,0,.84-4.41,10.58,10.58,0,0,0-.36-3.06,3,3,0,0,0-1.13-1.69,3.72,3.72,0,0,0-2.11-.53h-3.1v11.11h3.1A2.93,2.93,0,0,0,237.17,277.17Z" style="fill:#4d148c"/><path d="M245.12,265.68h2.14l3.12,12.91h1.14l3.12-12.91h2.14l-3.72,14.71h-4.24Z" style="fill:#4d148c"/><path d="M264.69,267.48v4.57h5.77v1.78h-5.77v4.76h7.05v1.8h-9.11V265.68h9.11v1.8Z" style="fill:#4d148c"/><path d="M278.09,265.68h5.51a5.15,5.15,0,0,1,3.65,1.14,4.51,4.51,0,0,1,1.21,3.44c0,2.16-.85,3.59-2.55,4.27l2.61,5.86h-2.24L283.9,275h-3.76v5.43h-2.05Zm5.54,7.51a2.7,2.7,0,0,0,2-.74,3,3,0,0,0,.69-2.15,3,3,0,0,0-.69-2.12,2.76,2.76,0,0,0-2.07-.72h-3.46v5.73Z" style="fill:#4d148c"/><path d="M297.63,267.5h-4.34v-1.82H304v1.82h-4.3v12.89h-2.05Z" style="fill:#4d148c"/><path d="M309.64,265.68h2.06v14.71h-2.06Z" style="fill:#4d148c"/><path d="M318.9,280.2l-.77-.13.21-1.65a35.82,35.82,0,0,0,4.41.39c1.92,0,2.88-.88,2.88-2.63a1.78,1.78,0,0,0-1.25-1.87,11,11,0,0,0-1.83-.52,12.6,12.6,0,0,1-2.69-.91,3.37,3.37,0,0,1-1.41-1.3,4.15,4.15,0,0,1-.45-2.07,3.8,3.8,0,0,1,1.22-3.06,5.47,5.47,0,0,1,3.59-1,18.17,18.17,0,0,1,1.89.1c.68.07,1.57.2,2.69.39l-.18,1.66c-1.95-.22-3.36-.34-4.23-.34-2,0-2.93.72-2.93,2.14a2.05,2.05,0,0,0,.33,1.24,2.42,2.42,0,0,0,1.06.74,17.67,17.67,0,0,0,2.2.63,10.64,10.64,0,0,1,2.4.85,3,3,0,0,1,1.25,1.22,4.28,4.28,0,0,1,.4,2,4.47,4.47,0,0,1-1.23,3.42,5.05,5.05,0,0,1-3.58,1.15A26.16,26.16,0,0,1,318.9,280.2Z" style="fill:#4d148c"/><path d="M334,265.68h2v14.71h-2Z" style="fill:#4d148c"/><path d="M354.26,265.68v14.71h-3.59l-5.09-12.91h-.34v12.91h-2.06V265.68h3.66l5,12.91h.39V265.68Z" style="fill:#4d148c"/><path d="M363.12,279.81a4.46,4.46,0,0,1-1.82-2.47,14.22,14.22,0,0,1-.54-4.32,13.79,13.79,0,0,1,.55-4.32,4.49,4.49,0,0,1,1.81-2.45,6.14,6.14,0,0,1,3.37-.8,22.32,22.32,0,0,1,4.19.43l.75.14-.09,1.65a31,31,0,0,0-4.47-.38,4.3,4.3,0,0,0-2.52.61,3,3,0,0,0-1.15,1.83,15.3,15.3,0,0,0-.3,3.44,13.16,13.16,0,0,0,.33,3.32,3,3,0,0,0,1.16,1.76,4.23,4.23,0,0,0,2.35.56,14.34,14.34,0,0,0,2.65-.22v-4h-2.11v-1.82h4.15v7.35a27.27,27.27,0,0,1-4.88.52A6.24,6.24,0,0,1,363.12,279.81Z" style="fill:#4d148c"/><path d="M462.33,221.24H405.14a10,10,0,0,0-10,10v15.88l20.08,18.84Z" style="fill:#4d148c"/><path d="M462.33,227.3l-47.08,56.34-20.08-30.49v25.29a10,10,0,0,0,10,10h47.22a10,10,0,0,0,10-10Z" style="fill:#f60"/></svg>